<svg width="22" height="18" viewBox="0 0 22 15" fill="none" xmlns="http://www.w3.org/2000/svg">
<path d="M20.87 7.49999C20.23 6.38999 16.71 0.819994 10.73 0.999994C5.20001 1.13999 2.00001 5.99999 1.13001 7.49999C1.04224 7.65201 0.996033 7.82446 0.996033 7.99999C0.996033 8.17553 1.04224 8.34797 1.13001 8.49999C1.76001 9.58999 5.13001 15 11.02 15H11.27C16.8 14.86 20.01 9.99999 20.87 8.49999C20.9578 8.34797 21.004 8.17553 21.004 7.99999C21.004 7.82446 20.9578 7.65201 20.87 7.49999ZM11.22 13C6.91001 13.1 4.10001 9.40999 3.22001 7.99999C4.22001 6.38999 6.83001 3.09999 10.83 2.99999C15.12 2.88999 17.94 6.58999 18.83 7.99999C17.8 9.60999 15.22 12.9 11.22 13Z" fill="#363636"/>
<path d="M11 4.5C10.3078 4.5 9.63108 4.70527 9.05551 5.08986C8.47993 5.47444 8.03133 6.02107 7.76642 6.66061C7.50152 7.30015 7.4322 8.00388 7.56725 8.68282C7.7023 9.36175 8.03564 9.98539 8.52513 10.4749C9.01461 10.9644 9.63825 11.2977 10.3172 11.4327C10.9961 11.5678 11.6999 11.4985 12.3394 11.2336C12.9789 10.9687 13.5256 10.5201 13.9101 9.9445C14.2947 9.36892 14.5 8.69223 14.5 8C14.5 7.07174 14.1313 6.1815 13.4749 5.52513C12.8185 4.86875 11.9283 4.5 11 4.5ZM11 9.5C10.7033 9.5 10.4133 9.41203 10.1666 9.2472C9.91997 9.08238 9.72771 8.84811 9.61418 8.57403C9.50065 8.29994 9.47095 7.99834 9.52882 7.70736C9.5867 7.41639 9.72956 7.14912 9.93934 6.93934C10.1491 6.72956 10.4164 6.5867 10.7074 6.52882C10.9983 6.47094 11.2999 6.50065 11.574 6.61418C11.8481 6.72771 12.0824 6.91997 12.2472 7.16665C12.412 7.41332 12.5 7.70333 12.5 8C12.5 8.39782 12.342 8.77936 12.0607 9.06066C11.7794 9.34196 11.3978 9.5 11 9.5Z" fill="#363636"/>
</svg>
